<svg xmlns="http://www.w3.org/2000/svg" version="1.1" xmlns:xlink="http://www.w3.org/1999/xlink" width="433.1" height="403.11"><svg xmlns="http://www.w3.org/2000/svg" version="1.1" xmlns:xlink="http://www.w3.org/1999/xlink" width="433.1" height="403.11"><svg xmlns="http://www.w3.org/2000/svg" viewBox="0 0 433.1 403.11"><defs><style>.cls-1{fill:#fefefe;}.cls-2{fill:#547690;}.cls-3{fill:#598325;}.cls-4{fill:#96c133;}.cls-5{fill:#2b4b24;}.cls-6{fill:#598a2e;}.cls-7{fill:#17262f;}</style></defs><g id="Layer_2" data-name="Layer 2"><g id="Layer_1-2" data-name="Layer 1"><path class="cls-1" d="M432.55,326.52a10,10,0,0,0-7.3-6.48c-.21-.05-17.18-3.77-26.74-6l3.05-21a10,10,0,0,0-8.23-11.3c-.84-.14-18.22-3-51.26-5.77,1.5-2.39,2.92-4.81,4.25-7.28a10,10,0,0,0-2.16-12.19A136.19,136.19,0,0,0,355.84,243c27.35-35.86,14.38-96.52,13.82-99.08a10,10,0,0,0-5.9-7.07,10.33,10.33,0,0,0-1.69-.53V69.78a14.45,14.45,0,0,0-8.86-13.35L222.42,1.12A14.73,14.73,0,0,0,217.14,0h-.38a14.5,14.5,0,0,0-5.52,1.1L80.41,56.42a14.46,14.46,0,0,0-8.88,13.36V203.2c0,27.17,6.71,51.56,20,72.74-33.33,2.74-50.87,5.66-51.72,5.8a10,10,0,0,0-8.26,11l2.54,21.37C24.4,316.4,8.06,320,7.86,320a10,10,0,0,0-5.6,16.09l16,19.65-8,35.1a10,10,0,0,0,14.48,11C39,394.28,50,391.88,56,391.15a17,17,0,0,0,15,9H362.09a17,17,0,0,0,15.06-9.1c5.54.65,16.45,2.93,31.19,10.85a10.06,10.06,0,0,0,4.73,1.19,10,10,0,0,0,9.75-12.23l-8-35.1,16.06-19.65A10,10,0,0,0,432.55,326.52ZM103.4,229.81l.39.38-.27.09Z"></path><path class="cls-2" d="M275.19,367h-4.7v6h4.7a2.52,2.52,0,0,0,1.94-.82,3.56,3.56,0,0,0,0-4.32A2.45,2.45,0,0,0,275.19,367Z"></path><path class="cls-2" d="M169.05,367h-3.28v13.73h3.28a4.51,4.51,0,0,0,3.17-1,3.72,3.72,0,0,0,1.12-2.88v-5.9a3.75,3.75,0,0,0-1.12-2.9A4.56,4.56,0,0,0,169.05,367Z"></path><polygon class="cls-2" points="110.96 376.94 116.5 376.94 113.73 368.97 110.96 376.94"></polygon><polygon class="cls-2" points="244.19 376.94 249.73 376.94 246.96 368.97 244.19 376.94"></polygon><path class="cls-2" d="M64,348.16v35a7,7,0,0,0,7,7H362.09a7,7,0,0,0,7-7v-35ZM94.88,383.9H81.73v-20H85v16.88h9.86Zm24,0-1.32-3.81h-7.72l-1.32,3.81H105l7.52-20h2.4l7.52,20Zm30.13,0h-3.61l-8.27-14.61v14.61H134v-20h3.59l8.29,14.83V363.86H149Zm27.69-7.16a7.77,7.77,0,0,1-.89,3.81,5.93,5.93,0,0,1-2.63,2.49,9.25,9.25,0,0,1-4.25.88h-6.48v-20H169a8.08,8.08,0,0,1,5.73,1.88,6.87,6.87,0,0,1,2,5.3Zm26.13,1.44a5.25,5.25,0,0,1-2,4.39,8.72,8.72,0,0,1-5.54,1.55,13.14,13.14,0,0,1-2.77-.28,11,11,0,0,1-2.49-.83,10,10,0,0,1-2.14-1.37l1.75-2.63a8.09,8.09,0,0,0,2.6,1.48,9.08,9.08,0,0,0,3.05.51,5.72,5.72,0,0,0,3.12-.72,2.28,2.28,0,0,0,1.11-2h0a2,2,0,0,0-.55-1.54,3.48,3.48,0,0,0-1.47-.8,19.15,19.15,0,0,0-2-.43c-.76-.12-1.53-.27-2.32-.45a7.59,7.59,0,0,1-2.16-.84,4.25,4.25,0,0,1-1.59-1.64,5.8,5.8,0,0,1-.6-2.85h0a5.44,5.44,0,0,1,1.9-4.44,8.15,8.15,0,0,1,5.35-1.57,10.4,10.4,0,0,1,3.23.53,11.44,11.44,0,0,1,3.07,1.57l-1.6,2.71a9.18,9.18,0,0,0-2.36-1.26,7,7,0,0,0-2.34-.42,5.28,5.28,0,0,0-2.94.69,2.25,2.25,0,0,0-1,2h0a2,2,0,0,0,.61,1.6,3.83,3.83,0,0,0,1.6.8c.66.18,1.37.34,2.13.5a23,23,0,0,1,2.25.54,7.45,7.45,0,0,1,2,.91,4.18,4.18,0,0,1,1.48,1.63,5.72,5.72,0,0,1,.56,2.71Zm15.9,1.56a3.72,3.72,0,0,0,5,.3,4.15,4.15,0,0,0,1.36-2.35h3.39a9,9,0,0,1-1.34,3.44,6.6,6.6,0,0,1-5.7,3,7.62,7.62,0,0,1-3.79-.9,6,6,0,0,1-2.46-2.58,8.57,8.57,0,0,1-.86-4v-5.49a8.59,8.59,0,0,1,.86-4,6.12,6.12,0,0,1,2.46-2.58,7.51,7.51,0,0,1,3.79-.91,6.85,6.85,0,0,1,3.28.78,6.78,6.78,0,0,1,2.43,2.22,8.87,8.87,0,0,1,1.33,3.44h-3.39a4.67,4.67,0,0,0-.78-1.7,3.82,3.82,0,0,0-1.28-1.1,3.34,3.34,0,0,0-1.59-.39,3.42,3.42,0,0,0-2.72,1.14,4.51,4.51,0,0,0-1,3.1v5.49A4.47,4.47,0,0,0,218.76,379.72Zm33.39,4.18-1.32-3.81H243.1l-1.32,3.81h-3.54l7.52-20h2.4l7.53,20Zm28.33-10.67a5.4,5.4,0,0,1-2.15,2.14,6.74,6.74,0,0,1-3.24.75h-4.6v7.78H267.2v-20h7.89a6.58,6.58,0,0,1,3.24.76,5.46,5.46,0,0,1,2.15,2.14,7.18,7.18,0,0,1,0,6.47Zm16,10.67h-3.36v-20h3.36Zm28.38,0h-3.62L313,369.29v14.59h-3.2v-20h3.58l8.3,14.83V363.86h3.2Zm27.41-7.27a8.43,8.43,0,0,1-.89,3.95,6.39,6.39,0,0,1-2.49,2.61,7.42,7.42,0,0,1-3.77.93,8,8,0,0,1-3.81-.87,6.27,6.27,0,0,1-2.53-2.47,7.41,7.41,0,0,1-.9-3.71v-5.91a8.25,8.25,0,0,1,.9-3.95,6.39,6.39,0,0,1,2.49-2.61,7.36,7.36,0,0,1,3.76-.93,6.93,6.93,0,0,1,5.73,2.83,7.45,7.45,0,0,1,1.34,3.12h-3.55a3.32,3.32,0,0,0-1.36-2A3.83,3.83,0,0,0,345,367a3.46,3.46,0,0,0-2.73,1.15,4.32,4.32,0,0,0-1,3v5.91a3.6,3.6,0,0,0,1.05,2.71,3.87,3.87,0,0,0,2.8,1,3.56,3.56,0,0,0,2.73-1.09,4.2,4.2,0,0,0,1-3v-.6h-3.56V372.9h6.95Z"></path><path class="cls-3" d="M232.21,284.89c-.17.72-.32,1.39-.44,2-31.83,0-64.64.49-90.48,1-1.92-1.54-3.8-3.15-5.63-4.81q-3.63-3.29-7-6.91A104.86,104.86,0,0,1,117.56,262a99,99,0,0,1-10.79-22.26,302.3,302.3,0,0,1,66.37-6.66,309.83,309.83,0,0,1,48.57,5c-.37,2.6-.64,5.13-.82,7.56s-.28,5-.3,7.36a101.83,101.83,0,0,0,2.18,22.91,12.2,12.2,0,0,0,2.8,5.29A11.06,11.06,0,0,0,232.21,284.89Z"></path><path class="cls-3" d="M299.82,281.33c-.64.6-1.28,1.2-1.93,1.78-1.72,1.57-3.49,3.08-5.29,4.53-5.46-.17-11.19-.3-17.11-.4a76.86,76.86,0,0,1,11.05-3.18c1.9-.44,3.79-.83,5.73-1.22h0l2.37-.47C296.35,282,298.08,281.7,299.82,281.33Z"></path><path class="cls-4" d="M220.89,245.67a395.84,395.84,0,0,0-49.15,1.54c-25.63,2.56-44.44,10-54.18,14.78a104.86,104.86,0,0,0,11.1,14.19c11.76-6.33,26.73-13.05,42.23-16.54,15.91-3.58,34.42-5.54,49.7-6.62C220.61,250.69,220.7,248.23,220.89,245.67Z"></path><path class="cls-5" d="M235.78,142.19a52.06,52.06,0,0,0,6.81,11.19l-.33.25a4,4,0,0,0,1.83,7.19c.11,0,2.36.31,5.29.38l1.28,1.27a66.28,66.28,0,0,1-14.85,13.87,4,4,0,0,0,1.66,7.24,90.64,90.64,0,0,0,9.93.86A91.62,91.62,0,0,1,235,194.17a4,4,0,0,0-1.78,3.33v6.23a96.21,96.21,0,0,0-10.15,27c-12.16-1.78-24.33-3.18-36.3-3.76h18.87a4,4,0,0,0,2.21-7.33,109.86,109.86,0,0,1-17.88-14.4,114.17,114.17,0,0,0,15.13-1.14,4,4,0,0,0,1.66-7.24A87.64,87.64,0,0,1,188.39,180a51.39,51.39,0,0,0,4-4.62c2.47-.15,4.18-.38,4.28-.39a4,4,0,0,0,1.83-7.19,78.7,78.7,0,0,1-11.17-9.93c7.66-8.64,10.4-15.37,10.52-15.69a20.28,20.28,0,0,1-6.32,1.6,3.56,3.56,0,0,0,.29-.7,4,4,0,0,0-1.31-4.25c-1-.84-2-1.69-3-2.54C200.34,123.93,203,113,203,113c-6.77,2.41-16.05,1.49-16.05,1.49,15.68-12.7,20-25.66,20-25.66H195.23c17.82-16.93,21.56-41.36,21.56-41.36s3.74,24.43,21.56,41.36H226.64s4.29,13,20,25.66c0,0-9.28.92-16-1.49,0,0,3.7,15,23.07,29.74q-.39.51-.84,1C249,144.13,240.65,144.54,235.78,142.19Z"></path><path class="cls-5" d="M181.29,200.93a111.75,111.75,0,0,0,23.16-.81c-21.12-14.62-27.34-30.48-27.34-30.48,6.44,3.11,19,1.4,19,1.4-20.35-15-24.19-30.58-24.19-30.58,6.77,2.41,16,1.49,16,1.49-15.68-12.7-20-25.66-20-25.66H179.7c-17.82-16.93-21.56-41.36-21.56-41.36s-3.74,24.43-21.56,41.36h11.71s-4.29,13-20,25.66c0,0,9.28.92,16-1.49,0,0-3.83,15.58-24.18,30.58,0,0,12.54,1.71,19-1.4,0,0-6.21,15.86-27.33,30.48a111.69,111.69,0,0,0,23.15.81s-5,9.16-24.31,22H205.6C186.3,210.09,181.29,200.93,181.29,200.93Z"></path><path class="cls-5" d="M295.51,157.14a17.84,17.84,0,0,1-6.29-1.37,22.57,22.57,0,0,0,1.32,2.68c-12.13,3.43-24.82,9.1-38.77,22a89.86,89.86,0,0,1-13.68-.85c16.54-11.45,21.41-23.87,21.41-23.87-5,2.44-14.86,1.09-14.86,1.09,15.93-11.74,18.94-23.94,18.94-23.94-5.3,1.89-12.57,1.16-12.57,1.16,12.27-9.94,15.63-20.09,15.63-20.09h-9.17c13.95-13.26,16.88-32.38,16.88-32.38s2.93,19.12,16.89,32.38h-9.18s3.36,10.15,15.64,20.09c0,0-7.27.73-12.57-1.16,0,0,2.8,11.34,17.28,22.68C300.12,156.07,297.83,156.58,295.51,157.14Z"></path><path class="cls-3" d="M337.51,264a120.68,120.68,0,0,1-14.06,20.65q-1.83,2.19-3.78,4.3c-3.6-.25-7.49-.47-11.61-.66q2.2-2.12,4.3-4.35a114.8,114.8,0,0,0,7.48-8.77A78,78,0,0,0,337.51,264Z"></path><path class="cls-3" d="M352.07,69.78V138q-4.67,2.82-9,5V72.77L216.8,19.38,90.53,72.77V203.2c0,35.29,12.55,61.38,30.67,80.66h0q2.1,2.25,4.31,4.36l-12,.27c-1.19-1.29-2.33-2.59-3.44-3.92-19-22.57-28.59-49.88-28.59-81.37V69.78a4.48,4.48,0,0,1,2.75-4.14L215,10.35a4.64,4.64,0,0,1,3.54,0L349.32,65.64A4.48,4.48,0,0,1,352.07,69.78Z"></path><path class="cls-6" d="M347.89,236.93C323,269.5,304.17,268.64,284,273.35c-14.79,3.47-20.72,6.74-24.38,13.66-5.45-.05-11-.09-16.62-.11,2.12-8.65,8.58-26.63,27.71-44.83,26-24.76,49.17-38.43,50.12-39-1.29.41-42.74,13.63-64.26,36.42-21.86,23.14-23.14,33.85-23.14,33.85s-11.57-48,23.14-82.28,57.43-16.29,103.29-45C359.89,146.07,372.74,204.35,347.89,236.93Z"></path><path class="cls-7" d="M391,322.47l-6.68,41L372.71,362v18.8s15.74-1,40.36,12.27L404,353.24l19.15-23.43S397.45,324.17,391,322.47Z"></path><path class="cls-7" d="M42.15,322.47l5,41.19,14.14-1.37v18.55s-16.64-1-41.27,12.27l9.12-39.87L10,329.81S35.65,324.17,42.15,322.47Z"></path><path class="cls-7" d="M216.55,281.2C103,281.2,41.44,291.6,41.44,291.6l8.21,69s65.66-8.24,166.9-8.24,165.07,8.24,165.07,8.24l10-69S330.09,281.2,216.55,281.2Zm-94.26,57.26q-4,3.53-11.56,4a29,29,0,0,1-5.93-.27,24.1,24.1,0,0,1-5.38-1.47A21.83,21.83,0,0,1,94.73,338l3.4-5.8a17.16,17.16,0,0,0,5.69,2.83,19.7,19.7,0,0,0,6.54.71,12.26,12.26,0,0,0,6.54-1.9,4.85,4.85,0,0,0,2.11-4.43v0a4.37,4.37,0,0,0-1.37-3.21,7.27,7.27,0,0,0-3.21-1.51,43,43,0,0,0-4.27-.68c-1.63-.16-3.29-.39-5-.67a16.45,16.45,0,0,1-4.69-1.53,9,9,0,0,1-3.56-3.29,12.35,12.35,0,0,1-1.61-6v0q-.33-6.07,3.5-9.64t11.17-4a21.85,21.85,0,0,1,6.91.74,24.78,24.78,0,0,1,6.71,3l-3.07,5.95a19.42,19.42,0,0,0-5.15-2.4,15.28,15.28,0,0,0-5-.61,11.18,11.18,0,0,0-6.17,1.83,4.75,4.75,0,0,0-2,4.29v0a4.31,4.31,0,0,0,1.49,3.31,8.28,8.28,0,0,0,3.49,1.52c1.42.29,2.94.56,4.58.8s3.23.51,4.85.87a16.27,16.27,0,0,1,4.45,1.68,9.31,9.31,0,0,1,3.34,3.29,12.19,12.19,0,0,1,1.51,5.68v.06Q126.28,334.94,122.29,338.46Zm19.09,2h0l-2.9.1L137,298l7-.24h0l20.94-.71.23,6.7-20.94.72.39,11.39,17.71-.61.23,6.68-17.71.6.37,11.1,20.94-.71.23,6.7Zm60.76-1.41-9.56-17.46-6.88.08.21,17.58-7,.08-.52-42.62,2.9,0h0l14.89-.18a12.57,12.57,0,0,1,6.36,1.48,10.8,10.8,0,0,1,4.27,4.31,13.77,13.77,0,0,1,1.59,6.58,13.57,13.57,0,0,1-1.45,6.61,11.1,11.1,0,0,1-4.16,4.43,11.65,11.65,0,0,1-2.48,1.06l10.24,18Zm48.75-35.68-20.94-.2-.12,11.39,17.73.18-.07,6.68-17.72-.18-.11,11.1,20.94.21-.06,6.71-25-.25h0l-2.9,0,.42-42.59,7,.07h0l21,.2ZM295,340.55l-7.67-.25-16.56-31.6-1,31L263,339.5,264.4,297l7.61.24,16.6,32.09,1-31.51,6.79.22ZM339.46,307l-20.91-1.19-.64,11.38,17.69,1-.38,6.67-17.69-1L316.9,335l20.91,1.18-.37,6.7-25-1.42h0l-2.9-.16,2.41-42.53,7,.39h0l20.91,1.18Z"></path><path class="cls-7" d="M199.78,313.21A6.49,6.49,0,0,0,201.1,309a6.24,6.24,0,0,0-1.41-4.18,4.53,4.53,0,0,0-3.64-1.56l-10.57.13.14,11.63,10.57-.13A4.45,4.45,0,0,0,199.78,313.21Z"></path></g></g></svg></svg><style>@media (prefers-color-scheme: light) { :root { filter: none; } }
@media (prefers-color-scheme: dark) { :root { filter: none; } }
</style></svg>