<svg width="48" height="48" viewBox="0 0 48 48" fill="none" xmlns="http://www.w3.org/2000/svg">
<g clip-path="url(#clip0_3_114)">
<path d="M46.5947 45.1554H46.1473V27.9864C46.1473 27.2103 45.5181 26.5812 44.742 26.5812H36.0693V1.43927C36.0693 0.663185 35.4401 0.0339966 34.664 0.0339966H13.313C12.5369 0.0339966 11.9077 0.663185 11.9077 1.43927V10.6458H3.23494C2.45886 10.6458 1.82967 11.275 1.82967 12.0511V45.1555H1.40528C0.629189 45.1555 0 45.7847 0 46.5608C0 47.3369 0.629189 47.9661 1.40528 47.9661H46.5947C47.3708 47.9661 48 47.3369 48 46.5608C48 45.7847 47.3708 45.1554 46.5947 45.1554ZM43.3367 29.3917V33.0866H36.0693V29.3917H43.3367ZM11.9077 27.9006H4.64022V21.832H11.9076L11.9077 27.9006ZM4.64022 30.7112H11.9076V36.7798H4.64022V30.7112ZM11.9077 13.4563V19.0213H4.64022V13.4563H11.9077ZM4.64022 39.5903H11.9076V45.1554H4.64022V39.5903ZM14.7183 2.84455H33.2588V45.1555H30.2835V37.2736C30.2835 36.4975 29.6543 35.8683 28.8782 35.8683H19.0988C18.3227 35.8683 17.6935 36.4975 17.6935 37.2736V45.1555H14.7183V2.84455ZM20.5041 45.1554V38.6788H27.4729V45.1554H20.5041ZM36.0692 45.1554V35.8972H43.3366V45.1554H36.0692Z" fill="white"/>
<path d="M18.9313 8.56122H29.0455C29.8216 8.56122 30.4508 7.93203 30.4508 7.15595C30.4508 6.37986 29.8216 5.75067 29.0455 5.75067H18.9313C18.1552 5.75067 17.526 6.37986 17.526 7.15595C17.526 7.93203 18.1552 8.56122 18.9313 8.56122Z" fill="white"/>
<path d="M18.9313 14.5049H29.0455C29.8216 14.5049 30.4508 13.8758 30.4508 13.0997C30.4508 12.3236 29.8216 11.6944 29.0455 11.6944H18.9313C18.1552 11.6944 17.526 12.3236 17.526 13.0997C17.526 13.8758 18.1552 14.5049 18.9313 14.5049Z" fill="white"/>
<path d="M18.9313 20.4489H29.0455C29.8216 20.4489 30.4508 19.8197 30.4508 19.0436C30.4508 18.2676 29.8216 17.6384 29.0455 17.6384H18.9313C18.1552 17.6384 17.526 18.2676 17.526 19.0436C17.526 19.8197 18.1552 20.4489 18.9313 20.4489Z" fill="white"/>
<path d="M18.9313 26.3928H29.0455C29.8216 26.3928 30.4508 25.7636 30.4508 24.9875C30.4508 24.2114 29.8216 23.5822 29.0455 23.5822H18.9313C18.1552 23.5822 17.526 24.2114 17.526 24.9875C17.526 25.7636 18.1552 26.3928 18.9313 26.3928Z" fill="white"/>
<path d="M18.9313 32.3366H29.0455C29.8216 32.3366 30.4508 31.7074 30.4508 30.9313C30.4508 30.1552 29.8216 29.526 29.0455 29.526H18.9313C18.1552 29.526 17.526 30.1552 17.526 30.9313C17.526 31.7074 18.1552 32.3366 18.9313 32.3366Z" fill="white"/>
</g>
<defs>
<clipPath id="clip0_3_114">
<rect width="48" height="48" fill="white"/>
</clipPath>
</defs>
</svg>
