<svg xmlns="http://www.w3.org/2000/svg" viewBox="0 0 48 48">
<path fill="#FFC107" d="M43.6 20.5H42V20H24v8h11.3c-1.6 4.7-6.1 8-11.3 8-6.6 0-12-5.4-12-12s5.4-12 12-12c3 0 5.7 1.1 7.8 2.9l5.7-5.7C34.3 6.3 29.4 4 24 4 13.5 4 5 12.5 5 23s8.5 19 19 19 19-8.5 19-19c0-1.3-.1-1.7-.4-2.5z"/>
<path fill="#FF3D00" d="M6.3 14.2 12.9 19C14.7 15.1 19 12 24 12c3 0 5.7 1.1 7.8 2.9l5.7-5.7C34.3 6.3 29.4 4 24 4 16.7 4 10.4 8.1 6.3 14.2z"/>
<path fill="#4CAF50" d="M24 42c5.2 0 10-2 13.6-5.3l-6.3-5.3c-2 1.4-4.5 2.3-7.3 2.3-5.3 0-9.8-3.4-11.4-8.1L6 30.6C10 37.5 16.5 42 24 42z"/>
<path fill="#1976D2" d="M43.6 20.5H42V20H24v8h11.3c-1 2.9-3 5.1-5.7 6.5l6.3 5.3C39 36.8 43 31 43 23c0-1.3-.1-1.7-.4-2.5z"/>
</svg>
