<svg width="21" height="20" viewBox="0 0 21 20" fill="none" xmlns="http://www.w3.org/2000/svg">
<path d="M16.4 10.8333C16.2167 10.8333 16.025 10.775 15.8417 10.7333C15.4704 10.6515 15.1056 10.5429 14.75 10.4083C14.3634 10.2677 13.9385 10.275 13.557 10.4288C13.1754 10.5827 12.8643 10.8722 12.6834 11.2417L12.5 11.6167C11.6884 11.1651 10.9425 10.6044 10.2834 9.95C9.62901 9.29085 9.06822 8.545 8.6167 7.73333L8.9667 7.5C9.33617 7.3191 9.62569 7.00794 9.77953 6.62641C9.93337 6.24488 9.94068 5.81993 9.80004 5.43333C9.66772 5.07702 9.55915 4.71233 9.47504 4.34167C9.43337 4.15833 9.40004 3.96667 9.37504 3.775C9.27384 3.18802 8.96639 2.65645 8.50805 2.27603C8.04972 1.89561 7.47061 1.69134 6.87504 1.7H4.37504C4.01589 1.69663 3.66024 1.77068 3.33229 1.91711C3.00434 2.06354 2.71179 2.27891 2.47456 2.54857C2.23733 2.81822 2.06098 3.13583 1.95753 3.47976C1.85407 3.8237 1.82593 4.18588 1.87504 4.54167C2.31898 8.03282 3.91339 11.2766 6.40641 13.7605C8.89943 16.2445 12.149 17.8271 15.6417 18.2583H15.9584C16.5729 18.2592 17.1662 18.0338 17.625 17.625C17.8887 17.3892 18.0993 17.1001 18.2429 16.7769C18.3866 16.4537 18.46 16.1037 18.4584 15.75V13.25C18.4482 12.6712 18.2374 12.1138 17.862 11.6731C17.4866 11.2323 16.9699 10.9355 16.4 10.8333V10.8333ZM16.8167 15.8333C16.8166 15.9517 16.7912 16.0686 16.7424 16.1764C16.6935 16.2841 16.6223 16.3802 16.5334 16.4583C16.4403 16.5387 16.3314 16.5988 16.2137 16.6347C16.096 16.6705 15.9722 16.6814 15.85 16.6667C12.7291 16.2665 9.83023 14.8387 7.61063 12.6086C5.39103 10.3784 3.97704 7.47278 3.5917 4.35C3.57844 4.22793 3.59006 4.10444 3.62587 3.98699C3.66168 3.86954 3.72093 3.76057 3.80004 3.66667C3.87813 3.57778 3.97425 3.50653 4.08202 3.45768C4.18978 3.40883 4.30671 3.38348 4.42504 3.38333H6.92503C7.11882 3.37902 7.30805 3.4424 7.46015 3.56256C7.61226 3.68272 7.71771 3.85214 7.75837 4.04167C7.7917 4.26944 7.83337 4.49444 7.88337 4.71667C7.97963 5.15595 8.10775 5.58765 8.2667 6.00833L7.10003 6.55C7.00028 6.59577 6.91055 6.66079 6.836 6.74133C6.76145 6.82187 6.70354 6.91635 6.66559 7.01933C6.62765 7.12231 6.61043 7.23178 6.61491 7.34144C6.61939 7.45109 6.64549 7.55879 6.6917 7.65833C7.89104 10.2273 9.95607 12.2923 12.525 13.4917C12.7279 13.575 12.9555 13.575 13.1584 13.4917C13.2623 13.4545 13.3578 13.397 13.4393 13.3227C13.5209 13.2483 13.5868 13.1584 13.6334 13.0583L14.15 11.8917C14.5808 12.0457 15.0205 12.1737 15.4667 12.275C15.6889 12.325 15.9139 12.3667 16.1417 12.4C16.3312 12.4407 16.5007 12.5461 16.6208 12.6982C16.741 12.8503 16.8043 13.0395 16.8 13.2333L16.8167 15.8333Z" fill="#585B5D"/>
</svg>
