<svg width="21" height="20" viewBox="0 0 21 20" fill="none" xmlns="http://www.w3.org/2000/svg">
<path d="M16.0334 3.33333H4.3667C3.70366 3.33333 3.06777 3.59673 2.59893 4.06557C2.13009 4.53441 1.8667 5.17029 1.8667 5.83333V14.1667C1.8667 14.8297 2.13009 15.4656 2.59893 15.9344C3.06777 16.4033 3.70366 16.6667 4.3667 16.6667H16.0334C16.6964 16.6667 17.3323 16.4033 17.8011 15.9344C18.27 15.4656 18.5334 14.8297 18.5334 14.1667V5.83333C18.5334 5.17029 18.27 4.53441 17.8011 4.06557C17.3323 3.59673 16.6964 3.33333 16.0334 3.33333V3.33333ZM15.6917 5L10.7917 9.9C10.7142 9.97811 10.6221 10.0401 10.5205 10.0824C10.419 10.1247 10.31 10.1465 10.2 10.1465C10.09 10.1465 9.9811 10.1247 9.87955 10.0824C9.778 10.0401 9.68584 9.97811 9.60837 9.9L4.70837 5H15.6917ZM16.8667 14.1667C16.8667 14.3877 16.7789 14.5996 16.6226 14.7559C16.4663 14.9122 16.2544 15 16.0334 15H4.3667C4.14569 15 3.93372 14.9122 3.77744 14.7559C3.62116 14.5996 3.53337 14.3877 3.53337 14.1667V6.175L8.43337 11.075C8.90212 11.5432 9.53753 11.8061 10.2 11.8061C10.8625 11.8061 11.4979 11.5432 11.9667 11.075L16.8667 6.175V14.1667Z" fill="#585B5D"/>
</svg>
