<svg xmlns="http://www.w3.org/2000/svg" xmlns:xlink="http://www.w3.org/1999/xlink" width="2000" zoomAndPan="magnify" viewBox="0 0 1500 1499.999933" height="2000" preserveAspectRatio="xMidYMid meet" version="1.0"><defs><g/><clipPath id="6c7f7a4852"><path d="M 93.953125 632.160156 L 507.203125 632.160156 L 507.203125 919.410156 L 93.953125 919.410156 Z M 93.953125 632.160156 " clip-rule="nonzero"/></clipPath><clipPath id="5847023711"><path d="M 152 632.160156 L 429 632.160156 L 429 918 L 152 918 Z M 152 632.160156 " clip-rule="nonzero"/></clipPath><clipPath id="fadace98ee"><path d="M 111 909 L 470 909 L 470 919.410156 L 111 919.410156 Z M 111 909 " clip-rule="nonzero"/></clipPath></defs><rect x="-150" width="1800" fill="#ffffff" y="-149.999993" height="1799.99992" fill-opacity="1"/><rect x="-150" width="1800" fill="#1a1a1a" y="-149.999993" height="1799.99992" fill-opacity="1"/><g clip-path="url(#6c7f7a4852)"><path fill="#fefefe" d="M 511.257812 956.316406 C 510.96875 955.488281 510.582031 954.714844 510.097656 953.988281 C 509.609375 953.261719 509.039062 952.605469 508.386719 952.027344 C 507.734375 951.445312 507.015625 950.957031 506.238281 950.558594 C 505.457031 950.164062 504.640625 949.871094 503.789062 949.683594 C 503.574219 949.632812 486.207031 945.824219 476.421875 943.542969 L 479.542969 922.054688 C 479.640625 921.398438 479.671875 920.742188 479.640625 920.082031 C 479.605469 919.417969 479.511719 918.765625 479.351562 918.125 C 479.191406 917.480469 478.972656 916.859375 478.695312 916.261719 C 478.414062 915.660156 478.078125 915.09375 477.691406 914.558594 C 477.300781 914.023438 476.863281 913.53125 476.378906 913.078125 C 475.890625 912.628906 475.367188 912.230469 474.804688 911.882812 C 474.242188 911.53125 473.652344 911.242188 473.03125 911.007812 C 472.410156 910.773438 471.777344 910.601562 471.121094 910.492188 C 470.261719 910.347656 452.476562 907.421875 418.667969 904.585938 C 420.203125 902.140625 421.65625 899.664062 423.015625 897.136719 C 423.285156 896.636719 423.511719 896.113281 423.695312 895.574219 C 423.875 895.03125 424.011719 894.480469 424.101562 893.917969 C 424.191406 893.351562 424.234375 892.785156 424.230469 892.214844 C 424.226562 891.644531 424.171875 891.078125 424.074219 890.515625 C 423.972656 889.957031 423.828125 889.40625 423.636719 888.867188 C 423.445312 888.332031 423.210938 887.8125 422.933594 887.316406 C 422.65625 886.816406 422.335938 886.347656 421.980469 885.902344 C 421.625 885.457031 421.230469 885.042969 420.804688 884.664062 C 425.09375 880.320312 429.078125 875.714844 432.757812 870.847656 C 460.746094 834.152344 447.472656 772.082031 446.902344 769.460938 C 446.722656 768.660156 446.457031 767.890625 446.09375 767.15625 C 445.734375 766.421875 445.289062 765.738281 444.765625 765.109375 C 444.238281 764.476562 443.648438 763.917969 442.988281 763.433594 C 442.328125 762.945312 441.621094 762.542969 440.863281 762.226562 C 440.300781 761.996094 439.726562 761.816406 439.132812 761.683594 L 439.132812 693.59375 C 439.136719 692.867188 439.082031 692.148438 438.976562 691.429688 C 438.875 690.710938 438.714844 690.003906 438.507812 689.3125 C 438.296875 688.617188 438.039062 687.941406 437.730469 687.285156 C 437.421875 686.628906 437.070312 685.996094 436.667969 685.390625 C 436.265625 684.789062 435.824219 684.214844 435.335938 683.675781 C 434.851562 683.136719 434.332031 682.636719 433.769531 682.175781 C 433.210938 681.710938 432.621094 681.292969 432 680.917969 C 431.382812 680.542969 430.734375 680.214844 430.066406 679.933594 L 296.226562 623.335938 C 294.496094 622.617188 292.695312 622.234375 290.824219 622.1875 L 290.433594 622.1875 C 288.476562 622.191406 286.59375 622.566406 284.785156 623.316406 L 150.90625 679.921875 C 150.234375 680.203125 149.589844 680.53125 148.96875 680.90625 C 148.347656 681.28125 147.753906 681.699219 147.195312 682.164062 C 146.632812 682.625 146.109375 683.125 145.625 683.667969 C 145.136719 684.207031 144.695312 684.777344 144.292969 685.382812 C 143.890625 685.988281 143.535156 686.617188 143.226562 687.277344 C 142.917969 687.933594 142.65625 688.609375 142.449219 689.304688 C 142.238281 690 142.082031 690.707031 141.976562 691.425781 C 141.871094 692.144531 141.816406 692.867188 141.820312 693.59375 L 141.820312 830.121094 C 141.820312 857.925781 148.683594 882.882812 162.285156 904.554688 C 128.175781 907.359375 110.226562 910.347656 109.359375 910.492188 C 108.71875 910.601562 108.09375 910.769531 107.488281 910.996094 C 106.878906 911.222656 106.300781 911.503906 105.746094 911.84375 C 105.191406 912.179688 104.675781 912.566406 104.195312 913.003906 C 103.714844 913.4375 103.277344 913.917969 102.890625 914.433594 C 102.5 914.953125 102.164062 915.503906 101.878906 916.089844 C 101.59375 916.671875 101.367188 917.273438 101.195312 917.902344 C 101.027344 918.527344 100.917969 919.164062 100.867188 919.8125 C 100.820312 920.457031 100.832031 921.101562 100.90625 921.746094 L 103.503906 943.617188 C 93.589844 945.960938 76.867188 949.644531 76.664062 949.644531 C 76.238281 949.734375 75.820312 949.855469 75.410156 950.003906 C 75 950.148438 74.601562 950.320312 74.214844 950.519531 C 73.828125 950.71875 73.453125 950.9375 73.09375 951.183594 C 72.734375 951.429688 72.390625 951.695312 72.066406 951.984375 C 71.742188 952.273438 71.433594 952.582031 71.148438 952.910156 C 70.863281 953.238281 70.597656 953.582031 70.355469 953.945312 C 70.113281 954.308594 69.894531 954.683594 69.703125 955.074219 C 69.507812 955.460938 69.339844 955.863281 69.195312 956.273438 C 69.054688 956.683594 68.9375 957.101562 68.847656 957.527344 C 68.757812 957.953125 68.695312 958.386719 68.660156 958.820312 C 68.625 959.253906 68.617188 959.6875 68.640625 960.121094 C 68.660156 960.554688 68.707031 960.988281 68.785156 961.417969 C 68.859375 961.84375 68.960938 962.265625 69.089844 962.683594 C 69.222656 963.097656 69.375 963.503906 69.558594 963.898438 C 69.738281 964.296875 69.945312 964.679688 70.175781 965.046875 C 70.40625 965.417969 70.65625 965.769531 70.933594 966.109375 L 87.304688 986.214844 L 79.121094 1022.132812 C 78.90625 1023.089844 78.832031 1024.054688 78.894531 1025.035156 C 78.957031 1026.011719 79.15625 1026.960938 79.496094 1027.882812 C 79.832031 1028.800781 80.289062 1029.65625 80.871094 1030.445312 C 81.453125 1031.234375 82.136719 1031.925781 82.914062 1032.515625 C 83.695312 1033.109375 84.542969 1033.582031 85.460938 1033.929688 C 86.375 1034.28125 87.320312 1034.492188 88.296875 1034.570312 C 89.273438 1034.648438 90.242188 1034.585938 91.203125 1034.382812 C 92.160156 1034.183594 93.074219 1033.851562 93.9375 1033.390625 C 108.53125 1025.652344 119.785156 1023.195312 125.925781 1022.449219 C 126.667969 1023.839844 127.582031 1025.109375 128.667969 1026.25 C 129.753906 1027.394531 130.972656 1028.371094 132.324219 1029.179688 C 133.675781 1029.992188 135.113281 1030.609375 136.632812 1031.027344 C 138.152344 1031.449219 139.699219 1031.660156 141.277344 1031.660156 L 439.15625 1031.660156 C 440.742188 1031.660156 442.300781 1031.449219 443.828125 1031.023438 C 445.355469 1030.597656 446.800781 1029.972656 448.160156 1029.152344 C 449.515625 1028.332031 450.738281 1027.34375 451.828125 1026.1875 C 452.914062 1025.035156 453.828125 1023.753906 454.566406 1022.347656 C 460.234375 1023.011719 471.398438 1025.347656 486.484375 1033.449219 C 487.996094 1034.257812 489.609375 1034.664062 491.324219 1034.667969 C 491.707031 1034.667969 492.089844 1034.648438 492.46875 1034.605469 C 492.851562 1034.5625 493.226562 1034.496094 493.601562 1034.410156 C 493.976562 1034.328125 494.34375 1034.222656 494.703125 1034.09375 C 495.066406 1033.96875 495.417969 1033.820312 495.765625 1033.65625 C 496.109375 1033.488281 496.445312 1033.304688 496.769531 1033.101562 C 497.09375 1032.894531 497.40625 1032.675781 497.707031 1032.433594 C 498.003906 1032.195312 498.289062 1031.941406 498.5625 1031.671875 C 498.832031 1031.398438 499.085938 1031.113281 499.328125 1030.8125 C 499.566406 1030.515625 499.785156 1030.203125 499.992188 1029.878906 C 500.195312 1029.554688 500.378906 1029.21875 500.546875 1028.875 C 500.710938 1028.527344 500.859375 1028.175781 500.984375 1027.8125 C 501.113281 1027.449219 501.21875 1027.082031 501.300781 1026.710938 C 501.386719 1026.335938 501.453125 1025.957031 501.496094 1025.578125 C 501.535156 1025.195312 501.558594 1024.816406 501.558594 1024.429688 C 501.558594 1024.046875 501.535156 1023.664062 501.492188 1023.285156 C 501.449219 1022.902344 501.386719 1022.527344 501.300781 1022.152344 L 493.113281 986.234375 L 509.546875 966.128906 C 510.097656 965.449219 510.550781 964.714844 510.914062 963.921875 C 511.273438 963.128906 511.527344 962.300781 511.675781 961.445312 C 511.828125 960.585938 511.867188 959.722656 511.796875 958.851562 C 511.722656 957.984375 511.542969 957.136719 511.257812 956.316406 Z M 174.429688 857.351562 L 174.832031 857.742188 L 174.554688 857.832031 Z M 174.429688 857.351562 " fill-opacity="1" fill-rule="nonzero"/></g><path fill="#598325" d="M 306.246094 913.714844 C 306.070312 914.453125 305.917969 915.136719 305.796875 915.761719 C 273.222656 915.761719 239.648438 916.261719 213.207031 916.785156 C 211.242188 915.210938 209.316406 913.5625 207.445312 911.863281 C 204.96875 909.617188 202.578125 907.261719 200.28125 904.792969 C 196.078125 900.285156 192.292969 895.453125 188.921875 890.292969 C 184.285156 883.164062 180.605469 875.570312 177.878906 867.511719 C 200.265625 862.730469 222.90625 860.457031 245.796875 860.699219 C 262.5 861.09375 279.066406 862.800781 295.5 865.816406 C 295.121094 868.476562 294.84375 871.0625 294.660156 873.550781 C 294.476562 876.039062 294.375 878.667969 294.355469 881.082031 C 294.210938 888.980469 294.953125 896.796875 296.585938 904.527344 C 297.082031 906.570312 298.039062 908.375 299.449219 909.9375 C 300.324219 910.949219 301.34375 911.78125 302.515625 912.429688 C 303.683594 913.078125 304.925781 913.507812 306.246094 913.714844 Z M 306.246094 913.714844 " fill-opacity="1" fill-rule="nonzero"/><path fill="#598325" d="M 375.433594 910.070312 C 374.777344 910.6875 374.121094 911.300781 373.457031 911.894531 C 371.695312 913.5 369.886719 915.046875 368.042969 916.527344 C 362.457031 916.355469 356.59375 916.222656 350.535156 916.121094 C 354.222656 914.753906 357.992188 913.667969 361.84375 912.867188 C 363.785156 912.414062 365.722656 912.015625 367.707031 911.617188 L 370.132812 911.136719 C 371.882812 910.757812 373.652344 910.449219 375.433594 910.070312 Z M 375.433594 910.070312 " fill-opacity="1" fill-rule="nonzero"/><path fill="#96c133" d="M 294.660156 873.582031 C 277.863281 873.0625 261.097656 873.589844 244.367188 875.15625 C 218.136719 877.777344 198.890625 885.390625 188.921875 890.28125 C 192.289062 895.449219 196.078125 900.289062 200.28125 904.800781 C 212.316406 898.324219 227.632812 891.449219 243.496094 887.875 C 259.777344 884.214844 278.71875 882.207031 294.355469 881.101562 C 294.375 878.71875 294.46875 876.199219 294.660156 873.582031 Z M 294.660156 873.582031 " fill-opacity="1" fill-rule="nonzero"/><path fill="#2b4b24" d="M 309.898438 767.691406 C 311.738281 771.800781 314.058594 775.621094 316.867188 779.140625 L 316.53125 779.398438 C 316.199219 779.640625 315.914062 779.921875 315.671875 780.25 C 315.425781 780.578125 315.234375 780.933594 315.097656 781.316406 C 314.960938 781.699219 314.878906 782.097656 314.863281 782.503906 C 314.84375 782.910156 314.882812 783.3125 314.984375 783.707031 C 315.082031 784.105469 315.238281 784.476562 315.453125 784.824219 C 315.664062 785.171875 315.921875 785.484375 316.226562 785.753906 C 316.53125 786.027344 316.871094 786.246094 317.238281 786.417969 C 317.609375 786.589844 318 786.699219 318.402344 786.753906 C 318.515625 786.753906 320.816406 787.070312 323.816406 787.144531 L 325.125 788.445312 C 320.792969 793.960938 315.730469 798.691406 309.929688 802.636719 C 309.59375 802.871094 309.296875 803.148438 309.046875 803.46875 C 308.792969 803.789062 308.589844 804.140625 308.445312 804.523438 C 308.296875 804.902344 308.207031 805.296875 308.179688 805.707031 C 308.148438 806.113281 308.179688 806.515625 308.269531 806.914062 C 308.363281 807.316406 308.511719 807.691406 308.714844 808.046875 C 308.917969 808.398438 309.171875 808.714844 309.46875 808.996094 C 309.769531 809.273438 310.101562 809.503906 310.46875 809.683594 C 310.839844 809.859375 311.222656 809.980469 311.628906 810.046875 C 315 810.523438 318.386719 810.820312 321.789062 810.925781 C 317.847656 814.609375 313.617188 817.929688 309.101562 820.882812 C 308.53125 821.261719 308.085938 821.753906 307.761719 822.355469 C 307.441406 822.960938 307.277344 823.605469 307.277344 824.289062 L 307.277344 830.664062 C 302.421875 839.347656 298.957031 848.558594 296.890625 858.292969 C 284.449219 856.472656 271.996094 855.039062 259.746094 854.445312 L 279.054688 854.445312 C 279.496094 854.445312 279.921875 854.375 280.339844 854.238281 C 280.757812 854.097656 281.140625 853.898438 281.492188 853.636719 C 281.84375 853.375 282.148438 853.0625 282.398438 852.703125 C 282.652344 852.34375 282.84375 851.953125 282.96875 851.535156 C 283.09375 851.113281 283.152344 850.683594 283.140625 850.246094 C 283.128906 849.804688 283.050781 849.378906 282.902344 848.96875 C 282.753906 848.554688 282.542969 848.175781 282.273438 847.828125 C 282 847.484375 281.683594 847.1875 281.316406 846.945312 C 274.703125 842.675781 268.601562 837.761719 263.019531 832.210938 C 268.207031 832.164062 273.367188 831.777344 278.503906 831.042969 C 278.90625 830.980469 279.292969 830.859375 279.660156 830.679688 C 280.027344 830.5 280.363281 830.273438 280.660156 829.992188 C 280.960938 829.714844 281.210938 829.398438 281.417969 829.042969 C 281.621094 828.6875 281.769531 828.3125 281.859375 827.914062 C 281.953125 827.515625 281.984375 827.113281 281.953125 826.703125 C 281.925781 826.296875 281.835938 825.902344 281.6875 825.519531 C 281.539062 825.136719 281.339844 824.785156 281.085938 824.464844 C 280.832031 824.144531 280.539062 823.867188 280.203125 823.632812 C 273.109375 818.785156 266.84375 813.03125 261.402344 806.382812 C 262.863281 804.886719 264.226562 803.3125 265.496094 801.652344 C 268.023438 801.5 269.773438 801.265625 269.875 801.253906 C 270.28125 801.199219 270.667969 801.089844 271.039062 800.917969 C 271.410156 800.746094 271.746094 800.527344 272.050781 800.253906 C 272.355469 799.984375 272.617188 799.671875 272.828125 799.324219 C 273.039062 798.976562 273.195312 798.605469 273.296875 798.207031 C 273.398438 797.8125 273.4375 797.410156 273.417969 797.003906 C 273.398438 796.597656 273.320312 796.199219 273.183594 795.816406 C 273.042969 795.433594 272.851562 795.078125 272.609375 794.75 C 272.363281 794.421875 272.078125 794.140625 271.75 793.898438 C 267.617188 790.875 263.804688 787.488281 260.320312 783.734375 C 268.15625 774.894531 270.960938 768.007812 271.085938 767.679688 C 269.015625 768.578125 266.863281 769.125 264.617188 769.316406 C 264.742188 769.089844 264.839844 768.851562 264.914062 768.601562 C 265.03125 768.214844 265.085938 767.816406 265.085938 767.410156 C 265.082031 767.007812 265.023438 766.609375 264.902344 766.222656 C 264.785156 765.835938 264.609375 765.476562 264.382812 765.140625 C 264.15625 764.804688 263.886719 764.507812 263.574219 764.253906 C 262.550781 763.394531 261.527344 762.523438 260.503906 761.652344 C 273.632812 749.003906 276.355469 737.820312 276.355469 737.820312 C 269.425781 740.289062 259.929688 739.347656 259.929688 739.347656 C 275.976562 726.351562 280.394531 713.089844 280.394531 713.089844 L 268.402344 713.089844 C 286.636719 695.765625 290.464844 670.765625 290.464844 670.765625 C 290.464844 670.765625 294.292969 695.765625 312.527344 713.089844 L 300.546875 713.089844 C 300.546875 713.089844 304.9375 726.390625 321.011719 739.347656 C 321.011719 739.347656 311.515625 740.289062 304.640625 737.820312 C 304.640625 737.820312 308.425781 753.171875 328.246094 768.253906 C 327.980469 768.601562 327.695312 768.941406 327.386719 769.277344 C 323.425781 769.675781 314.882812 770.097656 309.898438 767.691406 Z M 309.898438 767.691406 " fill-opacity="1" fill-rule="nonzero"/><path fill="#2b4b24" d="M 254.136719 827.800781 C 262.066406 828.347656 269.96875 828.070312 277.839844 826.96875 C 256.226562 812.011719 249.859375 795.78125 249.859375 795.78125 C 256.449219 798.960938 269.304688 797.214844 269.304688 797.214844 C 248.480469 781.863281 244.550781 765.921875 244.550781 765.921875 C 251.476562 768.386719 260.921875 767.445312 260.921875 767.445312 C 244.875 754.449219 240.457031 741.1875 240.457031 741.1875 L 252.511719 741.1875 C 234.273438 723.863281 230.449219 698.863281 230.449219 698.863281 C 230.449219 698.863281 226.621094 723.863281 208.386719 741.1875 L 220.367188 741.1875 C 220.367188 741.1875 215.976562 754.492188 199.902344 767.445312 C 199.902344 767.445312 209.398438 768.386719 216.273438 765.921875 C 216.273438 765.921875 212.355469 781.863281 191.53125 797.214844 C 191.53125 797.214844 204.363281 798.960938 210.972656 795.78125 C 210.972656 795.78125 204.621094 812.011719 183.007812 826.96875 C 190.875 828.070312 198.769531 828.347656 206.695312 827.800781 C 206.695312 827.800781 201.582031 837.171875 181.820312 850.3125 L 279.015625 850.3125 C 259.265625 837.171875 254.136719 827.800781 254.136719 827.800781 Z M 254.136719 827.800781 " fill-opacity="1" fill-rule="nonzero"/><path fill="#2b4b24" d="M 371.023438 782.988281 C 368.789062 782.914062 366.644531 782.449219 364.585938 781.585938 C 364.976562 782.53125 365.425781 783.445312 365.9375 784.328125 C 353.523438 787.839844 340.535156 793.640625 326.261719 806.84375 C 321.574219 806.910156 316.90625 806.621094 312.261719 805.972656 C 329.1875 794.253906 334.171875 781.546875 334.171875 781.546875 C 329.054688 784.042969 318.964844 782.660156 318.964844 782.660156 C 335.265625 770.648438 338.347656 758.164062 338.347656 758.164062 C 332.921875 760.097656 325.484375 759.351562 325.484375 759.351562 C 338.039062 749.179688 341.476562 738.792969 341.476562 738.792969 L 332.09375 738.792969 C 346.371094 725.222656 349.367188 705.660156 349.367188 705.660156 C 349.367188 705.660156 352.367188 725.222656 366.652344 738.792969 L 357.257812 738.792969 C 357.257812 738.792969 360.695312 749.179688 373.261719 759.351562 C 373.261719 759.351562 365.824219 760.097656 360.398438 758.164062 C 360.398438 758.164062 363.265625 769.769531 378.082031 781.371094 C 375.738281 781.894531 373.394531 782.417969 371.023438 782.988281 Z M 371.023438 782.988281 " fill-opacity="1" fill-rule="nonzero"/><path fill="#598325" d="M 414 892.339844 C 409.9375 899.882812 405.140625 906.925781 399.613281 913.46875 C 398.363281 914.964844 397.074219 916.429688 395.746094 917.871094 C 392.0625 917.613281 388.082031 917.386719 383.863281 917.195312 C 385.363281 915.746094 386.832031 914.265625 388.265625 912.742188 C 390.964844 909.878906 393.519531 906.886719 395.917969 903.769531 C 402.460938 900.773438 408.488281 896.964844 414 892.339844 Z M 414 892.339844 " fill-opacity="1" fill-rule="nonzero"/><g clip-path="url(#5847023711)"><path fill="#598325" d="M 428.902344 693.59375 L 428.902344 763.402344 C 425.714844 765.328125 422.644531 767.03125 419.691406 768.519531 L 419.691406 696.652344 L 290.476562 642.019531 L 161.261719 696.652344 L 161.261719 830.121094 C 161.261719 866.234375 174.105469 892.933594 192.648438 912.660156 C 194.078125 914.195312 195.550781 915.683594 197.058594 917.121094 L 184.777344 917.398438 C 183.558594 916.078125 182.394531 914.75 181.257812 913.386719 C 161.8125 890.292969 152 862.34375 152 830.121094 L 152 693.59375 C 152 693.140625 152.066406 692.699219 152.195312 692.265625 C 152.324219 691.832031 152.515625 691.425781 152.765625 691.050781 C 153.015625 690.671875 153.316406 690.339844 153.664062 690.050781 C 154.015625 689.765625 154.398438 689.53125 154.816406 689.359375 L 288.632812 632.78125 C 289.839844 632.28125 291.050781 632.28125 292.257812 632.78125 L 426.085938 689.359375 C 426.503906 689.53125 426.886719 689.765625 427.234375 690.050781 C 427.585938 690.339844 427.882812 690.671875 428.136719 691.050781 C 428.386719 691.425781 428.574219 691.832031 428.707031 692.265625 C 428.835938 692.699219 428.902344 693.140625 428.902344 693.59375 Z M 428.902344 693.59375 " fill-opacity="1" fill-rule="nonzero"/></g><path fill="#598a2e" d="M 424.625 864.636719 C 399.152344 897.964844 379.882812 897.085938 359.242188 901.90625 C 344.109375 905.457031 338.039062 908.804688 334.292969 915.882812 C 328.71875 915.832031 323.039062 915.792969 317.285156 915.773438 C 319.457031 906.921875 326.066406 888.523438 345.644531 869.898438 C 372.25 844.5625 395.960938 830.574219 396.933594 829.988281 C 395.613281 830.410156 353.195312 843.9375 331.171875 867.257812 C 308.804688 890.9375 307.492188 901.894531 307.492188 901.894531 C 307.492188 901.894531 295.652344 852.777344 331.171875 817.699219 C 366.691406 782.621094 389.941406 801.03125 436.871094 771.652344 C 436.902344 771.660156 450.050781 831.300781 424.625 864.636719 Z M 424.625 864.636719 " fill-opacity="1" fill-rule="nonzero"/><g clip-path="url(#fadace98ee)"><path fill="#17262f" d="M 290.21875 909.9375 C 174.023438 909.9375 111.027344 920.582031 111.027344 920.582031 L 119.429688 991.1875 C 119.429688 991.1875 186.621094 982.757812 290.21875 982.757812 C 393.820312 982.757812 459.140625 991.1875 459.140625 991.1875 L 469.371094 920.582031 C 469.371094 920.582031 406.40625 909.9375 290.21875 909.9375 Z M 193.761719 968.53125 C 191.035156 970.941406 187.089844 972.304688 181.933594 972.625 C 179.898438 972.742188 177.878906 972.648438 175.863281 972.351562 C 173.96875 972.0625 172.136719 971.5625 170.359375 970.84375 C 168.644531 970.117188 167.042969 969.191406 165.558594 968.0625 L 169.039062 962.128906 C 170.796875 963.457031 172.738281 964.421875 174.863281 965.023438 C 177.050781 965.644531 179.28125 965.886719 181.554688 965.75 C 183.972656 965.746094 186.203125 965.097656 188.246094 963.804688 C 188.988281 963.300781 189.554688 962.644531 189.941406 961.832031 C 190.328125 961.019531 190.484375 960.167969 190.40625 959.273438 C 190.410156 958.652344 190.289062 958.054688 190.046875 957.484375 C 189.804688 956.914062 189.457031 956.414062 189.003906 955.988281 C 188.039062 955.195312 186.941406 954.683594 185.71875 954.441406 C 184.273438 954.136719 182.816406 953.90625 181.347656 953.746094 C 179.679688 953.582031 177.984375 953.347656 176.234375 953.0625 C 174.554688 952.78125 172.953125 952.257812 171.433594 951.496094 C 169.90625 950.710938 168.691406 949.589844 167.789062 948.128906 C 166.710938 946.222656 166.160156 944.179688 166.144531 941.988281 C 165.917969 937.847656 167.113281 934.558594 169.722656 932.125 C 172.335938 929.6875 176.148438 928.324219 181.15625 928.03125 C 183.550781 927.902344 185.910156 928.15625 188.226562 928.789062 C 190.667969 929.46875 192.957031 930.492188 195.09375 931.859375 L 191.949219 937.945312 C 190.316406 936.867188 188.558594 936.050781 186.679688 935.492188 C 185.011719 934.996094 183.304688 934.789062 181.5625 934.867188 C 179.273438 934.859375 177.167969 935.484375 175.25 936.738281 C 174.542969 937.238281 174.007812 937.878906 173.640625 938.660156 C 173.277344 939.445312 173.128906 940.265625 173.203125 941.128906 C 173.195312 941.777344 173.324219 942.398438 173.59375 942.992188 C 173.859375 943.582031 174.238281 944.089844 174.726562 944.515625 C 175.796875 945.316406 176.988281 945.835938 178.300781 946.070312 C 179.753906 946.367188 181.308594 946.644531 182.988281 946.890625 C 184.664062 947.136719 186.292969 947.410156 187.949219 947.78125 C 189.550781 948.128906 191.070312 948.703125 192.503906 949.5 C 193.933594 950.324219 195.074219 951.449219 195.921875 952.867188 C 196.917969 954.675781 197.433594 956.613281 197.464844 958.679688 L 197.464844 958.738281 C 197.71875 962.867188 196.484375 966.132812 193.761719 968.53125 Z M 213.296875 970.578125 L 210.328125 970.683594 L 208.816406 927.128906 L 215.976562 926.886719 L 237.40625 926.160156 L 237.640625 933.015625 L 216.214844 933.75 L 216.613281 945.40625 L 234.734375 944.78125 L 234.972656 951.617188 L 216.847656 952.230469 L 217.226562 963.589844 L 238.65625 962.863281 L 238.890625 969.71875 Z M 275.472656 969.136719 L 265.691406 951.269531 L 258.652344 951.351562 L 258.867188 969.339844 L 251.703125 969.421875 L 251.171875 925.808594 L 254.136719 925.808594 L 269.375 925.625 C 271.679688 925.546875 273.851562 926.050781 275.882812 927.140625 C 277.769531 928.183594 279.226562 929.65625 280.253906 931.550781 C 281.363281 933.65625 281.90625 935.902344 281.878906 938.285156 C 281.964844 940.667969 281.472656 942.921875 280.394531 945.046875 C 279.40625 946.964844 277.988281 948.472656 276.140625 949.582031 C 275.335938 950.042969 274.488281 950.402344 273.601562 950.667969 L 284.082031 969.085938 Z M 325.359375 932.625 L 303.933594 932.421875 L 303.808594 944.078125 L 321.953125 944.261719 L 321.882812 951.097656 L 303.75 950.910156 L 303.636719 962.269531 L 325.0625 962.484375 L 325.003906 969.351562 L 299.417969 969.097656 L 296.453125 969.097656 L 296.882812 925.511719 L 304.046875 925.585938 L 325.535156 925.789062 Z M 370.5 970.671875 L 362.652344 970.414062 L 345.703125 938.078125 L 344.679688 969.800781 L 337.753906 969.597656 L 339.1875 926.105469 L 346.972656 926.351562 L 363.960938 959.191406 L 364.984375 926.945312 L 371.933594 927.171875 Z M 415.996094 936.339844 L 394.597656 935.121094 L 393.945312 946.765625 L 412.046875 947.789062 L 411.65625 954.617188 L 393.554688 953.59375 L 392.910156 964.992188 L 414.308594 966.199219 L 413.929688 973.054688 L 388.347656 971.601562 L 385.378906 971.4375 L 387.84375 927.917969 L 395.007812 928.316406 L 416.40625 929.523438 Z M 415.996094 936.339844 " fill-opacity="1" fill-rule="nonzero"/></g><g fill="#ffffff" fill-opacity="1"><g transform="translate(458.636154, 768.851506)"><g><path d="M 26.953125 1.171875 C 19.367188 1.171875 13.726562 -0.832031 10.03125 -4.84375 C 6.34375 -8.863281 4.367188 -15.25 4.109375 -24 L 19.109375 -26.265625 C 19.171875 -21.234375 19.773438 -17.625 20.921875 -15.4375 C 22.066406 -13.25 23.78125 -12.15625 26.0625 -12.15625 C 29 -12.15625 30.46875 -14.082031 30.46875 -17.9375 C 30.46875 -21 29.765625 -23.640625 28.359375 -25.859375 C 26.960938 -28.085938 24.757812 -30.472656 21.75 -33.015625 L 14.890625 -39 C 11.492188 -41.875 8.863281 -44.925781 7 -48.15625 C 5.144531 -51.394531 4.21875 -55.234375 4.21875 -59.671875 C 4.21875 -66.335938 6.191406 -71.460938 10.140625 -75.046875 C 14.085938 -78.640625 19.523438 -80.4375 26.453125 -80.4375 C 33.960938 -80.4375 39.070312 -78.25 41.78125 -73.875 C 44.5 -69.5 45.957031 -64.175781 46.15625 -57.90625 L 31.0625 -56.046875 C 30.925781 -60.160156 30.546875 -63.113281 29.921875 -64.90625 C 29.304688 -66.707031 27.957031 -67.609375 25.875 -67.609375 C 24.363281 -67.609375 23.203125 -66.96875 22.390625 -65.6875 C 21.578125 -64.414062 21.171875 -63 21.171875 -61.4375 C 21.171875 -58.757812 21.773438 -56.503906 22.984375 -54.671875 C 24.191406 -52.847656 26.132812 -50.757812 28.8125 -48.40625 L 35.375 -42.625 C 39.289062 -39.289062 42.328125 -35.757812 44.484375 -32.03125 C 46.640625 -28.3125 47.71875 -23.90625 47.71875 -18.8125 C 47.71875 -15.09375 46.851562 -11.710938 45.125 -8.671875 C 43.394531 -5.628906 40.960938 -3.226562 37.828125 -1.46875 C 34.691406 0.289062 31.066406 1.171875 26.953125 1.171875 Z M 26.953125 1.171875 "/></g></g></g><g fill="#ffffff" fill-opacity="1"><g transform="translate(508.998062, 768.851506)"><g><path d="M 5.875 -79.375 L 41.546875 -79.375 L 41.546875 -67.40625 L 23.421875 -67.40625 L 23.421875 -47.71875 L 37.234375 -47.71875 L 37.234375 -35.5625 L 23.421875 -35.5625 L 23.421875 -11.859375 L 41.734375 -11.859375 L 41.734375 0 L 5.875 0 Z M 5.875 -79.375 "/></g></g></g><g fill="#ffffff" fill-opacity="1"><g transform="translate(552.795283, 768.851506)"><g><path d="M 5.875 -79.375 L 27.734375 -79.375 C 36.421875 -79.375 42.984375 -77.835938 47.421875 -74.765625 C 51.867188 -71.691406 54.09375 -66.238281 54.09375 -58.40625 C 54.09375 -53.113281 53.40625 -48.898438 52.03125 -45.765625 C 50.65625 -42.628906 48.109375 -40.175781 44.390625 -38.40625 L 55.265625 0 L 37.140625 0 L 28.421875 -35.5625 L 23.421875 -35.5625 L 23.421875 0 L 5.875 0 Z M 28.3125 -45.65625 C 31.84375 -45.65625 34.3125 -46.585938 35.71875 -48.453125 C 37.125 -50.316406 37.828125 -53.109375 37.828125 -56.828125 C 37.828125 -60.421875 37.171875 -63.113281 35.859375 -64.90625 C 34.554688 -66.707031 32.300781 -67.609375 29.09375 -67.609375 L 23.421875 -67.609375 L 23.421875 -45.65625 Z M 28.3125 -45.65625 "/></g></g></g><g fill="#ffffff" fill-opacity="1"><g transform="translate(611.583509, 768.851506)"><g><path d="M 5.875 -79.375 L 41.546875 -79.375 L 41.546875 -67.40625 L 23.421875 -67.40625 L 23.421875 -47.71875 L 37.234375 -47.71875 L 37.234375 -35.5625 L 23.421875 -35.5625 L 23.421875 -11.859375 L 41.734375 -11.859375 L 41.734375 0 L 5.875 0 Z M 5.875 -79.375 "/></g></g></g><g fill="#ffffff" fill-opacity="1"><g transform="translate(655.38072, 768.851506)"><g><path d="M 5.875 -79.375 L 18.21875 -79.375 L 34.484375 -41.15625 L 34.484375 -79.375 L 48.984375 -79.375 L 48.984375 0 L 37.140625 0 L 20.875 -41.15625 L 20.875 0 L 5.875 0 Z M 5.875 -79.375 "/></g></g></g><g fill="#ffffff" fill-opacity="1"><g transform="translate(710.347718, 768.851506)"><g><path d="M 5.875 -79.375 L 41.546875 -79.375 L 41.546875 -67.40625 L 23.421875 -67.40625 L 23.421875 -47.71875 L 37.234375 -47.71875 L 37.234375 -35.5625 L 23.421875 -35.5625 L 23.421875 -11.859375 L 41.734375 -11.859375 L 41.734375 0 L 5.875 0 Z M 5.875 -79.375 "/></g></g></g><g fill="#ffffff" fill-opacity="1"><g transform="translate(458.636154, 905.351494)"><g><path d="M 5.875 -79.375 L 23.421875 -79.375 L 23.421875 -11.859375 L 41.640625 -11.859375 L 41.640625 0 L 5.875 0 Z M 5.875 -79.375 "/></g></g></g><g fill="#ffffff" fill-opacity="1"><g transform="translate(502.041462, 905.351494)"><g><path d="M 17.046875 -79.375 L 37.03125 -79.375 L 51.828125 0 L 35.671875 0 L 33.015625 -16.75 L 21.359375 -16.75 L 18.609375 0 L 2.0625 0 Z M 31.359375 -27.234375 L 27.140625 -58.203125 L 22.921875 -27.234375 Z M 31.359375 -27.234375 "/></g></g></g><g fill="#ffffff" fill-opacity="1"><g transform="translate(556.028651, 905.351494)"><g><path d="M 5.875 -79.375 L 18.21875 -79.375 L 34.484375 -41.15625 L 34.484375 -79.375 L 48.984375 -79.375 L 48.984375 0 L 37.140625 0 L 20.875 -41.15625 L 20.875 0 L 5.875 0 Z M 5.875 -79.375 "/></g></g></g><g fill="#ffffff" fill-opacity="1"><g transform="translate(610.995638, 905.351494)"><g><path d="M 5.875 -79.375 L 25.96875 -79.375 C 32.820312 -79.375 38.175781 -78.519531 42.03125 -76.8125 C 45.882812 -75.113281 48.613281 -72.453125 50.21875 -68.828125 C 51.820312 -65.203125 52.625 -60.351562 52.625 -54.28125 L 52.625 -25.46875 C 52.625 -19.332031 51.820312 -14.4375 50.21875 -10.78125 C 48.613281 -7.125 45.898438 -4.410156 42.078125 -2.640625 C 38.265625 -0.878906 32.957031 0 26.15625 0 L 5.875 0 Z M 26.15625 -12.15625 C 28.707031 -12.15625 30.585938 -12.53125 31.796875 -13.28125 C 33.003906 -14.03125 33.769531 -15.101562 34.09375 -16.5 C 34.425781 -17.90625 34.59375 -19.984375 34.59375 -22.734375 L 34.59375 -57.328125 C 34.59375 -59.867188 34.410156 -61.804688 34.046875 -63.140625 C 33.691406 -64.484375 32.910156 -65.484375 31.703125 -66.140625 C 30.492188 -66.796875 28.613281 -67.125 26.0625 -67.125 L 23.421875 -67.125 L 23.421875 -12.15625 Z M 26.15625 -12.15625 "/></g></g></g><g fill="#ffffff" fill-opacity="1"><g transform="translate(668.412152, 905.351494)"><g><path d="M 26.953125 1.171875 C 19.367188 1.171875 13.726562 -0.832031 10.03125 -4.84375 C 6.34375 -8.863281 4.367188 -15.25 4.109375 -24 L 19.109375 -26.265625 C 19.171875 -21.234375 19.773438 -17.625 20.921875 -15.4375 C 22.066406 -13.25 23.78125 -12.15625 26.0625 -12.15625 C 29 -12.15625 30.46875 -14.082031 30.46875 -17.9375 C 30.46875 -21 29.765625 -23.640625 28.359375 -25.859375 C 26.960938 -28.085938 24.757812 -30.472656 21.75 -33.015625 L 14.890625 -39 C 11.492188 -41.875 8.863281 -44.925781 7 -48.15625 C 5.144531 -51.394531 4.21875 -55.234375 4.21875 -59.671875 C 4.21875 -66.335938 6.191406 -71.460938 10.140625 -75.046875 C 14.085938 -78.640625 19.523438 -80.4375 26.453125 -80.4375 C 33.960938 -80.4375 39.070312 -78.25 41.78125 -73.875 C 44.5 -69.5 45.957031 -64.175781 46.15625 -57.90625 L 31.0625 -56.046875 C 30.925781 -60.160156 30.546875 -63.113281 29.921875 -64.90625 C 29.304688 -66.707031 27.957031 -67.609375 25.875 -67.609375 C 24.363281 -67.609375 23.203125 -66.96875 22.390625 -65.6875 C 21.578125 -64.414062 21.171875 -63 21.171875 -61.4375 C 21.171875 -58.757812 21.773438 -56.503906 22.984375 -54.671875 C 24.191406 -52.847656 26.132812 -50.757812 28.8125 -48.40625 L 35.375 -42.625 C 39.289062 -39.289062 42.328125 -35.757812 44.484375 -32.03125 C 46.640625 -28.3125 47.71875 -23.90625 47.71875 -18.8125 C 47.71875 -15.09375 46.851562 -11.710938 45.125 -8.671875 C 43.394531 -5.628906 40.960938 -3.226562 37.828125 -1.46875 C 34.691406 0.289062 31.066406 1.171875 26.953125 1.171875 Z M 26.953125 1.171875 "/></g></g></g><g fill="#ffffff" fill-opacity="1"><g transform="translate(718.774048, 905.351494)"><g><path d="M 28.609375 1.171875 C 19.984375 1.171875 13.859375 -1.09375 10.234375 -5.625 C 6.609375 -10.164062 4.796875 -16.71875 4.796875 -25.28125 L 4.796875 -53.890625 C 4.796875 -62.640625 6.59375 -69.25 10.1875 -73.71875 C 13.78125 -78.195312 19.921875 -80.4375 28.609375 -80.4375 C 36.910156 -80.4375 42.789062 -78.441406 46.25 -74.453125 C 49.707031 -70.472656 51.4375 -64.828125 51.4375 -57.515625 L 51.4375 -50.65625 L 34.296875 -50.65625 L 34.296875 -58.59375 C 34.296875 -61.664062 33.96875 -64.015625 33.3125 -65.640625 C 32.65625 -67.273438 31.085938 -68.09375 28.609375 -68.09375 C 26.128906 -68.09375 24.492188 -67.226562 23.703125 -65.5 C 22.921875 -63.769531 22.53125 -61.367188 22.53125 -58.296875 L 22.53125 -20.96875 C 22.53125 -17.832031 22.9375 -15.429688 23.75 -13.765625 C 24.570312 -12.097656 26.191406 -11.265625 28.609375 -11.265625 C 31.023438 -11.265625 32.578125 -12.097656 33.265625 -13.765625 C 33.953125 -15.429688 34.296875 -17.832031 34.296875 -20.96875 L 34.296875 -29.296875 L 51.4375 -29.296875 L 51.4375 -22.4375 C 51.4375 -14.988281 49.707031 -9.191406 46.25 -5.046875 C 42.789062 -0.898438 36.910156 1.171875 28.609375 1.171875 Z M 28.609375 1.171875 "/></g></g></g><g fill="#ffffff" fill-opacity="1"><g transform="translate(773.936991, 905.351494)"><g><path d="M 17.046875 -79.375 L 37.03125 -79.375 L 51.828125 0 L 35.671875 0 L 33.015625 -16.75 L 21.359375 -16.75 L 18.609375 0 L 2.0625 0 Z M 31.359375 -27.234375 L 27.140625 -58.203125 L 22.921875 -27.234375 Z M 31.359375 -27.234375 "/></g></g></g><g fill="#ffffff" fill-opacity="1"><g transform="translate(827.924193, 905.351494)"><g><path d="M 5.875 -79.375 L 32.53125 -79.375 C 39.519531 -79.375 44.742188 -77.394531 48.203125 -73.4375 C 51.671875 -69.488281 53.40625 -63.789062 53.40625 -56.34375 C 53.40625 -47.851562 51.394531 -41.957031 47.375 -38.65625 C 43.351562 -35.351562 37.71875 -33.703125 30.46875 -33.703125 L 23.421875 -33.703125 L 23.421875 0 L 5.875 0 Z M 29.296875 -45.953125 C 32.367188 -45.953125 34.410156 -46.769531 35.421875 -48.40625 C 36.429688 -50.039062 36.9375 -52.785156 36.9375 -56.640625 C 36.9375 -60.160156 36.445312 -62.769531 35.46875 -64.46875 C 34.488281 -66.164062 32.398438 -67.015625 29.203125 -67.015625 L 23.421875 -67.015625 L 23.421875 -45.953125 Z M 29.296875 -45.953125 "/></g></g></g><g fill="#ffffff" fill-opacity="1"><g transform="translate(883.870965, 905.351494)"><g><path d="M 5.984375 -79.375 L 23.515625 -79.375 L 23.515625 0 L 5.984375 0 Z M 5.984375 -79.375 "/></g></g></g><g fill="#ffffff" fill-opacity="1"><g transform="translate(913.363074, 905.351494)"><g><path d="M 5.875 -79.375 L 18.21875 -79.375 L 34.484375 -41.15625 L 34.484375 -79.375 L 48.984375 -79.375 L 48.984375 0 L 37.140625 0 L 20.875 -41.15625 L 20.875 0 L 5.875 0 Z M 5.875 -79.375 "/></g></g></g><g fill="#ffffff" fill-opacity="1"><g transform="translate(968.330049, 905.351494)"><g><path d="M 26.546875 1.171875 C 18.710938 1.171875 13.128906 -1.207031 9.796875 -5.96875 C 6.460938 -10.738281 4.796875 -17.503906 4.796875 -26.265625 L 4.796875 -52.90625 C 4.796875 -61.851562 6.609375 -68.675781 10.234375 -73.375 C 13.859375 -78.082031 19.984375 -80.4375 28.609375 -80.4375 C 36.910156 -80.4375 42.851562 -78.410156 46.4375 -74.359375 C 50.03125 -70.316406 51.828125 -64.601562 51.828125 -57.21875 L 51.828125 -52.125 L 34.6875 -52.125 L 34.6875 -58.59375 C 34.6875 -61.726562 34.328125 -64.09375 33.609375 -65.6875 C 32.890625 -67.289062 31.289062 -68.09375 28.8125 -68.09375 C 26.257812 -68.09375 24.609375 -67.210938 23.859375 -65.453125 C 23.109375 -63.691406 22.734375 -61.242188 22.734375 -58.109375 L 22.734375 -21.359375 C 22.734375 -18.222656 23.207031 -15.753906 24.15625 -13.953125 C 25.101562 -12.160156 26.816406 -11.265625 29.296875 -11.265625 C 33.867188 -11.265625 36.15625 -14.695312 36.15625 -21.5625 L 36.15625 -30.859375 L 29 -30.859375 L 29 -41.15625 L 51.9375 -41.15625 L 51.9375 0 L 40.375 0 L 39.390625 -6.5625 C 36.910156 -1.40625 32.628906 1.171875 26.546875 1.171875 Z M 26.546875 1.171875 "/></g></g></g></svg>