<svg width="20" height="20" viewBox="0 0 20 20" fill="none" xmlns="http://www.w3.org/2000/svg">
<path d="M14.9333 5.51667C14.8488 5.31304 14.687 5.15123 14.4833 5.06667C14.3832 5.02397 14.2756 5.00132 14.1667 5H5.83334C5.61233 5 5.40037 5.0878 5.24409 5.24408C5.08781 5.40036 5.00001 5.61232 5.00001 5.83333C5.00001 6.05435 5.08781 6.26631 5.24409 6.42259C5.40037 6.57887 5.61233 6.66667 5.83334 6.66667H12.1583L5.24168 13.575C5.16357 13.6525 5.10157 13.7446 5.05927 13.8462C5.01696 13.9477 4.99518 14.0567 4.99518 14.1667C4.99518 14.2767 5.01696 14.3856 5.05927 14.4871C5.10157 14.5887 5.16357 14.6809 5.24168 14.7583C5.31915 14.8364 5.41131 14.8984 5.51286 14.9407C5.61441 14.9831 5.72333 15.0048 5.83334 15.0048C5.94335 15.0048 6.05227 14.9831 6.15382 14.9407C6.25537 14.8984 6.34754 14.8364 6.42501 14.7583L13.3333 7.84167V14.1667C13.3333 14.3877 13.4211 14.5996 13.5774 14.7559C13.7337 14.9122 13.9457 15 14.1667 15C14.3877 15 14.5997 14.9122 14.7559 14.7559C14.9122 14.5996 15 14.3877 15 14.1667V5.83333C14.9987 5.72444 14.976 5.61685 14.9333 5.51667V5.51667Z" fill="white"/>
</svg>
